<?xml version="1.0" encoding="utf-8"?>
<!-- Generator: Adobe Illustrator 24.2.0, SVG Export Plug-In . SVG Version: 6.00 Build 0)  -->
<svg version="1.1" id="Layer_1" xmlns="http://www.w3.org/2000/svg" xmlns:xlink="http://www.w3.org/1999/xlink" x="0px" y="0px"
	 viewBox="0 0 53 43" style="enable-background:new 0 0 53 43;" xml:space="preserve">
<style type="text/css">
	.st0{fill:#FFFFFF;}
</style>
<path class="st0" d="M16.5,35.8c2.5,0,4.4-2,4.4-4.4c0-2.4-2-4.3-4.4-4.3c-2.4,0-4.4,2-4.4,4.4C12.1,33.9,14.1,35.8,16.5,35.8
	 M6.1,20.5c0-0.5,0-1,0-1.6c0-1.4,0-2.8,0.1-4.3c0-0.4,0.1-0.9,0.2-1.3c0.3-1.1,1.1-1.7,2.3-1.8c0.4,0,0.8,0,1.2,0.1
	c0.9,0.2,1.5,0.7,1.8,1.6c0.2,0.6,0.3,1.3,0.3,2c0,2.2,0,4.3,0,6.5c0,0.1,0,0.2,0,0.3c0.2-0.1,0.3-0.1,0.5-0.2
	c1.5-0.5,3-0.8,4.6-0.7c2.7,0.1,5,1.2,6.8,3.2c2.1,2.2,3,4.8,2.8,7.8c-0.3,4.6-3.8,8.5-8.3,9.4c-0.6,0.1-1.2,0.2-1.8,0.2h-0.4
	c-0.6-0.1-1.1-0.1-1.7-0.2c-4.5-0.7-8.2-4.9-8.4-9.4c-0.1-1.8,0-3.6-0.1-5.4c0-0.5,0-1.1,0-1.6V20.5z"/>
<path class="st0" d="M20.2,1.1c0.1,0,0.3,0,0.4,0c6,0.1,11.5,2,16.3,5.5c5.2,3.8,8.7,8.8,10.5,15c0.6,2.2,0.9,4.5,0.9,6.7
	c0,0.4,0,0.7-0.1,1c-0.3,1-0.9,1.7-1.9,2c-0.7,0.2-1.5,0.2-2.2,0.1c-1.4-0.3-2.3-1.3-2.3-2.7c-0.1-1.6-0.3-3.1-0.6-4.7
	c-1.9-8.3-8.5-14.6-16.8-16.2c-1.2-0.2-2.5-0.3-3.8-0.4c-0.7-0.1-1.4-0.1-2.1-0.3c-1.2-0.3-1.9-1.1-2.1-2.3c-0.1-0.7,0-1.3,0.2-1.9
	c0.3-1,1.1-1.5,2.1-1.7c0.3,0,0.5-0.1,0.8-0.1H20.2z"/>
<path class="st0" d="M37.4,27.8c-0.1,0.6-0.1,1-0.1,1.5c-0.2,1.2-0.9,1.9-2.1,2.2c-0.7,0.2-1.4,0.2-2.1,0.1
	c-1.3-0.3-2.1-1.2-2.3-2.5c-0.1-1.2-0.3-2.4-0.7-3.6c-1.4-4-4.2-6.4-8.3-7.3c-0.9-0.2-1.8-0.2-2.7-0.3c-0.3,0-0.6-0.1-0.8-0.2
	c-1.3-0.4-2-1.4-1.9-2.8c0-0.3,0-0.7,0.1-1c0.3-1.4,1.3-2.2,2.7-2.3c1-0.1,2,0.1,3,0.3c3,0.6,5.8,1.6,8.3,3.5
	c3.4,2.4,5.6,5.7,6.5,9.8C37.1,25.9,37.2,26.9,37.4,27.8"/>
</svg>
