<?xml version="1.0" encoding="utf-8"?>
<!-- Generator: Adobe Illustrator 24.2.0, SVG Export Plug-In . SVG Version: 6.00 Build 0)  -->
<svg version="1.1" id="Layer_1" xmlns="http://www.w3.org/2000/svg" xmlns:xlink="http://www.w3.org/1999/xlink" x="0px" y="0px"
	 viewBox="0 0 53 43" style="enable-background:new 0 0 53 43;" xml:space="preserve">
<style type="text/css">
	.st0{fill:#FFFFFF;}
</style>
<g>
	<path class="st0" d="M4.5,5.4C4.5,4,5,2.8,6,1.9C7,1,8.3,0.5,9.9,0.5c1.6,0,2.8,0.5,3.8,1.4c1,0.9,1.5,2.1,1.5,3.6
		c0,1.4-0.5,2.5-1.4,3.4c-1,0.9-2.3,1.4-3.9,1.4h0c-1.6,0-2.8-0.5-3.8-1.4C5,8,4.5,6.8,4.5,5.4"/>
	<rect x="5.1" y="14.2" class="st0" width="9.4" height="28.3"/>
	<path class="st0" d="M19.7,42.5h9.4V26.7c0-1,0.1-1.8,0.3-2.3c0.4-1,1-1.8,1.8-2.4c0.8-0.7,1.8-1,3-1c3.2,0,4.8,2.1,4.8,6.4v15.1
		h9.4V26.3c0-4.2-1-7.4-3-9.5c-2-2.2-4.6-3.2-7.8-3.2c-3.6,0-6.5,1.6-8.5,4.7v0.1h0l0-0.1v-4h-9.4c0.1,0.9,0.1,3.7,0.1,8.4
		C19.8,27.3,19.8,34,19.7,42.5"/>
</g>
</svg>
